<?xml version="1.0" encoding="utf-8"?>
<!-- Generator: Adobe Illustrator 16.0.0, SVG Export Plug-In . SVG Version: 6.00 Build 0)  -->
<!DOCTYPE svg PUBLIC "-//W3C//DTD SVG 1.1//EN" "http://www.w3.org/Graphics/SVG/1.1/DTD/svg11.dtd">
<svg version="1.1" id="Layer_1" xmlns="http://www.w3.org/2000/svg" xmlns:xlink="http://www.w3.org/1999/xlink" x="0px" y="0px"
	 width="18.093px" height="18.75px" viewBox="0 0 18.093 18.75" enable-background="new 0 0 18.093 18.75" xml:space="preserve">
<g>
	<path d="M1.593,18.146c-0.209,0-0.375-0.167-0.375-0.375v-2.249c0-0.209,0.166-0.375,0.375-0.375h14.996
		c0.208,0,0.375,0.166,0.375,0.375v2.249c0,0.208-0.167,0.375-0.375,0.375H1.593z M9.361,13.543
		c-0.083,0.062-0.167,0.104-0.271,0.104c-0.104,0-0.188-0.042-0.271-0.104L1.321,6.045C1.218,5.941,1.196,5.774,1.238,5.629
		c0.062-0.146,0.208-0.229,0.354-0.229h4.124V0.525c0-0.208,0.166-0.374,0.375-0.374h5.998c0.208,0,0.375,0.166,0.375,0.374v4.874
		h4.124c0.146,0,0.291,0.084,0.354,0.229c0.042,0.146,0.021,0.312-0.083,0.416L9.361,13.543z"/>
</g>
</svg>
