<?xml version="1.0" encoding="utf-8"?>
<!-- Generator: Adobe Illustrator 16.0.0, SVG Export Plug-In . SVG Version: 6.00 Build 0)  -->
<!DOCTYPE svg PUBLIC "-//W3C//DTD SVG 1.1//EN" "http://www.w3.org/Graphics/SVG/1.1/DTD/svg11.dtd">
<svg version="1.1" id="Layer_1" xmlns="http://www.w3.org/2000/svg" xmlns:xlink="http://www.w3.org/1999/xlink" x="0px" y="0px"
	 width="23px" height="17.834px" viewBox="0 0 23 17.834" enable-background="new 0 0 23 17.834" xml:space="preserve">
<g>
	<path d="M22.002,9.385c0,0-4.521,6.758-10.428,6.758c-5.907,0-10.428-6.758-10.428-6.758c-0.098-0.146-0.098-0.34,0-0.486
		c0,0,4.521-6.757,10.428-6.757c5.906,0,10.379,6.685,10.379,6.685l0.049,0.072C22.099,9.045,22.099,9.239,22.002,9.385z
		 M15.512,9.142c0-2.163-1.774-3.938-3.938-3.938c-2.188,0-3.938,1.774-3.938,3.938c0,2.188,1.751,3.938,3.938,3.938
		C13.737,13.08,15.512,11.329,15.512,9.142z"/>
</g>
</svg>
